# xmcd CD database file
#
# Track frame offsets:
#	150
#	14639
#	29851
#	44559
#	61456
#	76011
#	90009
#	105469
#	120190
#	134855
#	149847
#	165281
#	182183
#	197054
#	214772
#	230210
#
# Disc length: 3261 seconds
#
# Revision: 0
# Processed by: cddbd v1.5.1PL0 Copyright (c) Steve Scherf et al.
# Submitted via: Feurio! 1.68 - http://www.feurio.com
#
DISCID=e60cbb10
DTITLE=Jürgen Renfordt - Im Namen der Liebe
DYEAR=1900
DGENRE=Schlager
TTITLE0=Im Name der Liebe
TTITLE1=Du hast den Sommer in den Augen
TTITLE2=Wer lacht jetzt mit dir
TTITLE3=Schlaflose Nächte
TTITLE4=Lieb ich dich vielleicht zu sehr
TTITLE5=Sie ist wie der April
TTITLE6=Es war ja nur eine Liebe
TTITLE7=Ich kann die Träume nicht verhindern
TTITLE8=Ich hab dir nie erzählt von meiner Liebe
TTITLE9=Heute Nacht schlaf' ich mit meiner Sehnsucht ein
TTITLE10=Sag nicht nie
TTITLE11=Bon Voyage
TTITLE12=Mit ganzem Herzen
TTITLE13=Wenn ich heut' nochgehen müsste
TTITLE14=Wilder Engel
TTITLE15=Du bist nicht allein
EXTD=
EXTT0=
EXTT1=
EXTT2=
EXTT3=
EXTT4=
EXTT5=
EXTT6=
EXTT7=
EXTT8=
EXTT9=
EXTT10=
EXTT11=
EXTT12=
EXTT13=
EXTT14=
EXTT15=
PLAYORDER=
